# xmcd
#
# Track frame offsets:
#	150
#	18105
#	43885
#	69378
#
# Disc length: 1262 seconds
#
# Revision: 4
# Processed by: cddbd v1.5.2PL0 Copyright (c) Steve Scherf et al.
# Submitted via: audiograbber 1.83.01
#
DISCID=2b04ec04
DTITLE=Rhonda and Phisical Motion - Maxi
DYEAR=1993
DGENRE=Pop
TTITLE0=It's my party ( Radio Version )
TTITLE1=It's my party ( Club Beat Version)
TTITLE2=It's my party ( Rave Version )
TTITLE3=It's my party ( P.M. Version )
EXTD=
EXTT0=
EXTT1=
EXTT2=
EXTT3=
PLAYORDER=
